<svg xmlns="http://www.w3.org/2000/svg" width="600" height="400" viewBox="0 0 600 400" fill="none">
  <style>
    .st0{fill:#E3F2FD;}
    .st1{fill:#2196F3;}
    .st2{fill:#1976D2;}
    .st3{fill:#FFFFFF;}
    .st4{fill:#E8F5E9;}
    .st5{fill:#4CAF50;}
    .st6{fill:#388E3C;}
    .st7{fill:#FFF8E1;}
    .st8{fill:#FFC107;}
    .st9{fill:#FFA000;}
    .st10{fill:#E1F5FE;}
    .st11{fill:#03A9F4;}
    .st12{fill:#0288D1;}
  </style>
  <rect width="600" height="400" fill="#F8F9FA"/>
  <g>
    <!-- Team Members -->
    <circle cx="150" cy="150" r="50" fill="#E3F2FD"/>
    <circle cx="150" cy="120" r="30" fill="#E3F2FD"/>
    <rect x="135" y="150" width="30" height="50" rx="5" fill="#2196F3"/>
    <rect x="125" y="170" width="50" height="10" rx="5" fill="#1976D2"/>
    
    <circle cx="300" cy="150" r="50" fill="#E8F5E9"/>
    <circle cx="300" cy="120" r="30" fill="#E8F5E9"/>
    <rect x="285" y="150" width="30" height="50" rx="5" fill="#4CAF50"/>
    <rect x="275" y="170" width="50" height="10" rx="5" fill="#388E3C"/>
    
    <circle cx="450" cy="150" r="50" fill="#FFF8E1"/>
    <circle cx="450" cy="120" r="30" fill="#FFF8E1"/>
    <rect x="435" y="150" width="30" height="50" rx="5" fill="#FFC107"/>
    <rect x="425" y="170" width="50" height="10" rx="5" fill="#FFA000"/>
    
    <!-- Connection Lines -->
    <line x1="200" y1="150" x2="250" y2="150" stroke="#2196F3" stroke-width="3"/>
    <line x1="350" y1="150" x2="400" y2="150" stroke="#4CAF50" stroke-width="3"/>
    
    <!-- Medical Icons -->
    <rect x="100" y="250" width="80" height="80" rx="10" fill="#E3F2FD"/>
    <rect x="120" y="270" width="40" height="40" rx="5" fill="#2196F3"/>
    <rect x="130" y="280" width="20" height="20" rx="2" fill="#FFFFFF"/>
    
    <rect x="260" y="250" width="80" height="80" rx="10" fill="#E8F5E9"/>
    <circle cx="300" cy="290" r="20" fill="#4CAF50"/>
    <rect x="295" y="275" width="10" height="30" rx="2" fill="#FFFFFF"/>
    <rect x="275" y="295" width="30" height="10" rx="2" fill="#FFFFFF"/>
    
    <rect x="420" y="250" width="80" height="80" rx="10" fill="#FFF8E1"/>
    <path d="M440 270 L460 310 L440 310 L420 270 Z" fill="#FFC107"/>
    <circle cx="440" cy="290" r="5" fill="#FFFFFF"/>
    
    <!-- Text Labels -->
    <text x="150" y="240" font-family="Arial" font-size="14" text-anchor="middle" fill="#1976D2">Doctor</text>
    <text x="300" y="240" font-family="Arial" font-size="14" text-anchor="middle" fill="#388E3C">Patient</text>
    <text x="450" y="240" font-family="Arial" font-size="14" text-anchor="middle" fill="#FFA000">Admin</text>
    
    <text x="140" y="350" font-family="Arial" font-size="12" text-anchor="middle" fill="#1976D2">Medical Records</text>
    <text x="300" y="350" font-family="Arial" font-size="12" text-anchor="middle" fill="#388E3C">Appointments</text>
    <text x="460" y="350" font-family="Arial" font-size="12" text-anchor="middle" fill="#FFA000">Analytics</text>
  </g>
</svg> 