<svg xmlns="http://www.w3.org/2000/svg" width="600" height="400" viewBox="0 0 600 400" fill="none">
  <style>
    .st0{fill:#E3F2FD;}
    .st1{fill:#2196F3;}
    .st2{fill:#1976D2;}
    .st3{fill:#FFFFFF;}
    .st4{fill:#E8F5E9;}
    .st5{fill:#4CAF50;}
    .st6{fill:#388E3C;}
    .st7{fill:#FFF8E1;}
    .st8{fill:#FFC107;}
    .st9{fill:#FFA000;}
    .st10{fill:#E1F5FE;}
    .st11{fill:#03A9F4;}
    .st12{fill:#0288D1;}
  </style>
  <rect width="600" height="400" fill="#F8F9FA"/>
  <g>
    <!-- Hospital Building -->
    <rect x="150" y="100" width="300" height="200" rx="10" fill="#E3F2FD"/>
    <rect x="150" y="100" width="300" height="50" rx="10" fill="#2196F3"/>
    <rect x="280" y="120" width="40" height="20" fill="#FFFFFF"/>
    <rect x="150" y="150" width="300" height="10" fill="#1976D2"/>
    <rect x="180" y="170" width="80" height="100" rx="5" fill="#FFFFFF"/>
    <rect x="340" y="170" width="80" height="100" rx="5" fill="#FFFFFF"/>
    <rect x="180" y="190" width="80" height="10" fill="#1976D2"/>
    <rect x="340" y="190" width="80" height="10" fill="#1976D2"/>
    <rect x="180" y="220" width="80" height="10" fill="#1976D2"/>
    <rect x="340" y="220" width="80" height="10" fill="#1976D2"/>
    <rect x="180" y="250" width="80" height="10" fill="#1976D2"/>
    <rect x="340" y="250" width="80" height="10" fill="#1976D2"/>
    
    <!-- Medical Cross -->
    <rect x="290" y="120" width="20" height="20" fill="#FFFFFF"/>
    <rect x="285" y="125" width="30" height="10" fill="#FF0000"/>
    <rect x="295" y="115" width="10" height="30" fill="#FF0000"/>
    
    <!-- Doctor -->
    <circle cx="100" cy="250" r="30" fill="#E8F5E9"/>
    <circle cx="100" cy="220" r="20" fill="#E8F5E9"/>
    <rect x="85" y="250" width="30" height="50" rx="5" fill="#4CAF50"/>
    <rect x="75" y="270" width="50" height="10" rx="5" fill="#388E3C"/>
    
    <!-- Patient -->
    <circle cx="500" cy="250" r="30" fill="#FFF8E1"/>
    <circle cx="500" cy="220" r="20" fill="#FFF8E1"/>
    <rect x="485" y="250" width="30" height="50" rx="5" fill="#FFC107"/>
    <rect x="475" y="270" width="50" height="10" rx="5" fill="#FFA000"/>
    
    <!-- Medical Equipment -->
    <rect x="50" y="150" width="40" height="60" rx="5" fill="#E1F5FE"/>
    <rect x="60" y="160" width="20" height="40" rx="2" fill="#03A9F4"/>
    <circle cx="70" cy="170" r="5" fill="#0288D1"/>
    
    <!-- Charts and Graphs -->
    <rect x="510" y="150" width="40" height="60" rx="5" fill="#E1F5FE"/>
    <rect x="520" y="170" width="20" height="20" fill="#03A9F4"/>
    <rect x="520" y="190" width="15" height="10" fill="#0288D1"/>
    <rect x="520" y="200" width="25" height="10" fill="#0288D1"/>
  </g>
</svg> 