<?xml version="1.0" encoding="UTF-8"?>
<svg width="200" height="200" viewBox="0 0 200 200" xmlns="http://www.w3.org/2000/svg">
    <!-- Background Circle -->
    <circle cx="100" cy="100" r="90" fill="#F3E5F5" />
    
    <!-- Main Elements -->
    <g transform="translate(100, 100)">
        <!-- Chat Bubble -->
        <g transform="translate(-30, -20)">
            <!-- Main Bubble -->
            <path d="M0,0 L60,0 L60,40 L30,40 L20,50 L10,40 L0,40 Z" 
                  fill="#E1BEE7" stroke="#9C27B0" stroke-width="2" />
            
            <!-- Message Lines -->
            <g transform="translate(10, 10)">
                <rect x="0" y="0" width="40" height="4" rx="2" fill="#9C27B0">
                    <animate attributeName="opacity" values="0.3;1;0.3" dur="2s" repeatCount="indefinite" />
                </rect>
                <rect x="0" y="10" width="30" height="4" rx="2" fill="#9C27B0">
                    <animate attributeName="opacity" values="0.3;1;0.3" dur="2s" begin="0.5s" repeatCount="indefinite" />
                </rect>
                <rect x="0" y="20" width="35" height="4" rx="2" fill="#9C27B0">
                    <animate attributeName="opacity" values="0.3;1;0.3" dur="2s" begin="1s" repeatCount="indefinite" />
                </rect>
            </g>
        </g>
        
        <!-- AI Brain -->
        <g transform="translate(30, 0)">
            <!-- Brain Outline -->
            <path d="M-20,-20 C-20,-30 -10,-40 0,-40 C10,-40 20,-30 20,-20 C20,-10 10,0 0,0 C-10,0 -20,-10 -20,-20 Z" 
                  fill="#CE93D8" stroke="#9C27B0" stroke-width="2" />
            
            <!-- Neural Network Lines -->
            <g>
                <line x1="-15" y1="-30" x2="15" y2="-20" stroke="#9C27B0" stroke-width="1">
                    <animate attributeName="opacity" values="0.3;1;0.3" dur="2s" repeatCount="indefinite" />
                </line>
                <line x1="-15" y1="-20" x2="15" y2="-10" stroke="#9C27B0" stroke-width="1">
                    <animate attributeName="opacity" values="0.3;1;0.3" dur="2s" begin="0.5s" repeatCount="indefinite" />
                </line>
                <line x1="-15" y1="-10" x2="15" y2="0" stroke="#9C27B0" stroke-width="1">
                    <animate attributeName="opacity" values="0.3;1;0.3" dur="2s" begin="1s" repeatCount="indefinite" />
                </line>
            </g>
            
            <!-- Pulse Rings -->
            <circle cx="0" cy="-20" r="5" fill="none" stroke="#9C27B0" stroke-width="1">
                <animate attributeName="r" from="5" to="15" dur="1s" repeatCount="indefinite" />
                <animate attributeName="opacity" from="1" to="0" dur="1s" repeatCount="indefinite" />
            </circle>
        </g>
        
        <!-- Medical Cross -->
        <g transform="translate(0, 30)">
            <rect x="-10" y="-2" width="20" height="4" fill="#9C27B0" />
            <rect x="-2" y="-10" width="4" height="20" fill="#9C27B0" />
        </g>
    </g>
</svg> 